# xmcd CD database file
#
# Track frame offsets:
#	150
#	16525
#	32233
#	45960
#	65357
#	81973
#	98904
#	115521
#	137449
#	154829
#	172765
#
# Disc length: 2519 seconds
#
# Revision: 0
# Processed by: cddbd v1.5.2PL0 Copyright (c) Steve Scherf et al.
# Submitted via: CDex 1.40Release
#
DISCID=7309d50b
DTITLE=Cole Deggs and The Lonesome - Cole Deggs and The Lonesome
DYEAR=2007
DGENRE=Country
TTITLE0=Girl Next Door
TTITLE1=I Got More
TTITLE2=Out Of Alabama
TTITLE3=Twelve Ounces Deep
TTITLE4=The One That Got Away
TTITLE5=Huggin' This Blacktop
TTITLE6=Makin' Nothing Out Of Something
TTITLE7=Do You Ever Think About Me
TTITLE8=Everybody's Beautiful To Someone
TTITLE9=Girl Like You
TTITLE10=I Haven't Stopped Hurtin'
EXTD=YEAR: 2007 ID3G: 2
EXTT0=
EXTT1=
EXTT2=
EXTT3=
EXTT4=
EXTT5=
EXTT6=
EXTT7=
EXTT8=
EXTT9=
EXTT10=
PLAYORDER=
